<?xml version="1.0" encoding="UTF-8"?>
<svg width="15px" height="15px" viewBox="0 0 15 15" version="1.1" xmlns="http://www.w3.org/2000/svg" xmlns:xlink="http://www.w3.org/1999/xlink">
    <!-- Generator: Sketch 64 (93537) - https://sketch.com -->
    <title>Account 4</title>
    <desc>Created with Sketch.</desc>
    <g id="Symbols" stroke="none" stroke-width="1" fill="none" fill-rule="evenodd">
        <g id="Header-Guest" transform="translate(-1305.000000, -27.000000)" fill="#212858" fill-rule="nonzero">
            <g id="Account-4">
                <g>
                    <path d="M1316.875,31.375625 C1316.875,33.79125 1314.91625,35.750625 1312.5,35.750625 C1310.08375,35.750625 1308.125,33.79125 1308.125,31.375625 C1308.125,28.95875 1310.08375,27 1312.5,27 C1314.91625,27 1316.875,28.95875 1316.875,31.375625 Z M1315.87625,35.863125 C1314.935,36.57375 1313.7675,37.000625 1312.5,37.000625 C1311.23125,37.000625 1310.06312,36.5725 1309.12063,35.861875 C1306.57562,36.9825 1305,40.471875 1305,42 L1320,42 C1320,40.485625 1318.375,36.99625 1315.87625,35.863125 L1315.87625,35.863125 Z"></path>
                </g>
            </g>
        </g>
    </g>
</svg>